# xmcd CD database file
#
# Track frame offsets:
#	150
#	58424
#	112432
#	155961
#	199890
#
# Disc length: 3916 seconds
#
# Revision: 0
# Processed by: cddbd v1.5.2PL0 Copyright (c) Steve Scherf et al.
# Submitted via: CDex 1.60beta1-cs1
#
DISCID=540f4a05
DTITLE=Art Pepper - The Croydon Concert May 14 1981 [CD2]
DYEAR=1900
DGENRE=Jazz
TTITLE0=Cherokee
TTITLE1=Goodbye
TTITLE2=Yours is my heart Alone
TTITLE3=Dedicated
TTITLE4=Make a List
EXTD=
EXTT0=
EXTT1=
EXTT2=
EXTT3=
EXTT4=
PLAYORDER=
